# AST/ASF file generated using VICON BodyLanguage
# -----------------------------------------------
:version 1.10
:name VICON
:units
  mass 1.0
  length 0.45
  angle deg
:documentation
   .ast/.asf automatically generated from VICON data using
   VICON BodyBuilder and BodyLanguage model FoxedUp or BRILLIANT.MOD
:root
   order TX TY TZ RX RY RZ
   axis XYZ
   position 0 0 0  
   orientation 0 -0 0 
:bonedata
  begin
     id 1 
     name lhipjoint
     direction 0.500677 -0.737119 0.453848 
     length 2.34727 
     axis 0 -0 0  XYZ
  end
  begin
     id 2 
     name lfemur
     direction 0.34202 -0.939693 0  
     length 7.53653  
     axis 0 -0 20  XYZ
    dof rx ry rz
    limits (-160.0 20.0)
           (-70.0 70.0)
           (-60.0 70.0)
  end
  begin
     id 3 
     name ltibia
     direction 0.34202 -0.939693 0   
     length 6.85572   
     axis 0 -0 20   XYZ
    dof rx
    limits (-10.0 170.0)
  end
  begin
     id 4 
     name lfoot
     direction 0.155313 -0.426718 0.890949   
     length 2.18324   
     axis -90 -1.13533e-015 20   XYZ
    dof rx rz
    limits (-45.0 90.0)
           (-70.0 20.0)
  end
  begin
     id 5 
     name ltoes
     direction 1.53474e-011 -4.21647e-011 1   
     length 1.06748   
     axis -90 -1.13533e-015 20   XYZ
    dof rx
    limits (-90.0 20.0)
  end
  begin
     id 6 
     name rhipjoint
     direction -0.632471 -0.659587 0.406111   
     length 2.62319  
     axis 0 -0 0  XYZ 
  end
  begin
     id 7 
     name rfemur
     direction -0.34202 -0.939693 0   
     length 7.21735   
     axis 0 -0 -20   XYZ
    dof rx ry rz
    limits (-160.0 20.0)
           (-70.0 70.0)
           (-70.0 60.0)
  end
  begin
     id 8 
     name rtibia
     direction -0.34202 -0.939693 0   
     length 7.02558   
     axis 0 -0 -20   XYZ
    dof rx
    limits (-10.0 170.0)
 end
 begin
     id 9 
     name rfoot
     direction -0.16057 -0.441164 0.882945   
     length 2.10014  
     axis -90 1.13533e-015 -20   XYZ
    dof rx rz
    limits (-45.0 90.0)
           (-20.0 70.0)
  end
  begin
     id 10 
     name rtoes
     direction -1.53553e-011 -4.2192e-011 1   
     length 1.02554   
     axis -90 1.13533e-015 -20   XYZ
    dof rx
    limits (-90.0 20.0)
  end
  begin
     id 11 
     name lowerback
     direction 0.0401429 0.998861 -0.0258085   
     length 1.80848   
     axis 0 -0 0   XYZ
    dof rx ry rz
    limits (-20.0 45.0)
           (-30.0 30.0)
           (-30.0 30.0)
  end
  begin
     id 12 
     name upperback
     direction -0.0130978 0.999914 -0.000352645   
     length 1.8116   
     axis 0 -0 0   XYZ
    dof rx ry rz
    limits (-20.0 45.0)
           (-30.0 30.0)
           (-30.0 30.0)
  end
  begin
     id 13 
     name thorax
     direction -0.0300198 0.999453 0.0138573   
     length 1.81778   
     axis 0 -0 0   XYZ
    dof rx ry rz
    limits (-20.0 45.0)
           (-30.0 30.0)
           (-30.0 30.0)
  end
  begin
     id 14 
     name lowerneck
     direction -0.0401726 0.999191 -0.00173647   
     length 2.10594   
     axis 0 -0 0   XYZ
    dof rx ry rz
    limits (-20.0 45.0)
           (-30.0 30.0)
           (-30.0 30.0)
  end
  begin
     id 15 
     name upperneck
     direction 0.0119835 0.998501 0.0534085   
     length 2.07325   
     axis 0 -0 0   XYZ
    dof rx ry rz
    limits (-20.0 45.0)
           (-30.0 30.0)
           (-30.0 30.0)
  end
  begin
     id 16
     name head
     direction 0.00628309 0.999826 0.0175921  
     length 2.15096  
     axis 0 -0 0   XYZ
    dof rx ry rz
    limits (-20.0 45.0)
           (-30.0 30.0)
           (-30.0 30.0)
  end
  begin
     id 17 
     name lclavicle
     direction 0.895501 0.429681 -0.115981  
     length 4.18092  
     axis 0 -0 0   XYZ
    dof ry rz
    limits (-20.0 10.0)
           (0.0 20.0)
  end
  begin
     id 18 
     name lhumerus
     direction 1 -4.48961e-011 -3.38433e-028   
     length 5.77237   
     axis 180 -30 -90   XYZ
    dof rx ry rz
    limits (-60.0 90.0)
           (-90.0 90.0)
           (-90.0 90.0)
  end
  begin
     id 19
     name lradius
     direction 1 -4.4901e-011 1.11983e-026   
     length 2.91878   
     axis 180 -30 -90   XYZ
    dof rx
    limits (-10.0 170.0)
  end
  begin
     id 20
     name lwrist
     direction 1 -4.48934e-011 1.88176e-026   
     length 1.45939   
     axis -1.23311e-014 90 90   XYZ
    dof ry
    limits (-180.0 0.0)
 end
  begin
     id 21 
     name lhand
     direction 1 -4.4895e-011 3.76352e-026   
     length 1.06566   
     axis -2.40147e-014 90 90   XYZ
    dof rx rz
    limits (-90.0 90.0)
           (-45.0 45.0)
  end
  begin
     id 22 
     name lfingers
     direction 1 -4.49005e-011 7.52705e-026   
     length 0.859162   
     axis -4.80295e-014 90 90   XYZ
    dof rx
    limits (0.0 90.0)
  end
  begin
     id 23
     name lthumb
     direction 0.707107 -6.34885e-011 0.707107   
     length 1.23359   
     axis -90 45 -9.86935e-015   XYZ
    dof rx rz
    limits (-45.0 45.0)
           (-45.0 45.0)
  end
  begin
     id 24 
     name rclavicle
     direction -0.91006 0.40451 -0.0903492   
     length 4.23293  
     axis 0 -0 0   XYZ 
    dof ry rz
    limits (-10.0 20.0)
           (-20.0 0.0)
  end
  begin
     id 25 
     name rhumerus
     direction -1 -4.4897e-011 1.7415e-027  
     length 5.49854   
     axis 180 30 90   XYZ
    dof rx ry rz
    limits (-90.0 60.0)
           (-90.0 90.0)
           (-90.0 90.0)
  end
  begin
     id 26 
     name rradius
     direction -1 -4.48963e-011 1.21259e-026   
     length 3.1186   
     axis 180 30 90   XYZ
    dof rx
    limits (-10.0 170.0)
  end
  begin
     id 27 
     name rwrist
     direction -1 -4.48967e-011 1.88176e-026   
     length 1.5593   
     axis -1.23311e-014 -90 -90   XYZ
    dof ry
    limits (-180.0 0.0)
  end
  begin
     id 28
     name rhand
     direction -1 -4.4895e-011 3.76352e-026   
     length 0.71207   
     axis -2.40147e-014 -90 -90   XYZ
    dof rx rz
    limits (-90.0 90.0)
           (-45.0 45.0)
  end
  begin
     id 29
     name rfingers
     direction -1 -4.49005e-011 7.52705e-026   
     length 0.574089   
     axis -4.80295e-014 -90 -90   XYZ
    dof rx
    limits (0.0 90.0)
  end
  begin
     id 30
     name rthumb
     direction -0.707107 -6.34982e-011 0.707107   
     length 0.824281   
     axis -90 -45 9.86935e-015   XYZ
    dof rx rz
    limits (-45.0 45.0)
           (-45.0 45.0)
  end
:hierarchy
  begin
    root lhipjoint rhipjoint lowerback
    lhipjoint lfemur
    lfemur ltibia
    ltibia lfoot
    lfoot ltoes
    rhipjoint rfemur
    rfemur rtibia
    rtibia rfoot
    rfoot rtoes
    lowerback upperback
    upperback thorax
    thorax lowerneck lclavicle rclavicle
    lowerneck upperneck
    upperneck head
    lclavicle lhumerus
    lhumerus lradius
    lradius lwrist
    lwrist lhand lthumb
    lhand lfingers
    rclavicle rhumerus
    rhumerus rradius
    rradius rwrist
    rwrist rhand rthumb
    rhand rfingers
  end

#!OML:ASF C:\ViconDB\ViconDB\414\Spring2016\042216\male.ASF
:FULLY-SPECIFIED
:DEGREES
475
root 12.9963 22.8306 11.951 -169.086 25.7841 -175.399
lowerback 18.3417 -5.71692 6.23849
upperback 3.36644 -6.02362 -1.00819
thorax -7.35605 -2.90952 -3.13153
lowerneck -0.335089 2.12524 -8.22632
upperneck -17.4916 3.51474 1.03863
head -5.38722 2.53501 1.49198
rclavicle -2.78299e-015 -6.36111e-015
rhumerus 14.1377 -16.948 -67.2225
rradius 107.839
rwrist -18.5007
rhand 0.902405 -22.6266
rfingers 7.12502
rthumb 26.4544 -50.8003
lclavicle -2.78299e-015 -6.36111e-015
lhumerus 5.27148 18.4597 69.5713
lradius 85.7453
lwrist 15.9641
lhand -14.5671 12.7813
lfingers 7.12502
lthumb 11.5823 42.4413
rfemur -52.232 -7.79495 25.0269
rtibia 87.6823
rfoot 7.75397 -1.96277
rtoes 1.54209
lfemur -54.8148 10.6248 -14.2918
ltibia 105.209
lfoot -0.742116 1.16229
ltoes -16.1827
476
root 12.9627 22.8413 12.0993 -168.732 25.6529 -175.498
lowerback 18.3371 -5.58077 6.02857
upperback 3.41769 -5.88875 -1.09817
thorax -7.27223 -2.8363 -3.15046
lowerneck -0.60417 1.94246 -7.83251
upperneck -17.3822 3.27358 0.735399
head -5.28379 2.41512 1.3487
rclavicle 1.37559e-013 -2.38542e-014
rhumerus 12.9279 -15.1951 -69.1497
rradius 104.658
rwrist -19.1016
rhand 1.26609 -23.4357
rfingers 7.12502
rthumb 26.8025 -51.5566
lclavicle 1.37559e-013 -2.38542e-014
lhumerus 4.78132 17.5823 70.7017
lradius 80.0962
lwrist 15.2519
lhand -15.2807 12.7065
lfingers 7.12502
lthumb 10.894 42.4039
rfemur -53.8572 -7.74203 24.8017
rtibia 90.906
rfoot 7.30242 -3.23057
rtoes 0.846375
lfemur -55.87 11.2318 -14.6798
ltibia 106.961
lfoot -1.30659 2.71255
ltoes -14.9578
477
root 12.9374 22.8405 12.2342 -168.363 25.6064 -175.6
lowerback 18.5143 -5.49618 5.6884
upperback 3.00755 -5.85778 -1.02979
thorax -7.76945 -2.84458 -2.86279
lowerneck -0.147227 2.01349 -8.06812
upperneck -17.0688 3.26725 0.749239
head -5.26877 2.39322 1.38846
rclavicle -2.90226e-014 -7.15625e-015
rhumerus 10.9816 -12.6675 -70.776
rradius 100.715
rwrist -18.1596
rhand 1.14259 -23.2234
rfingers 7.12502
rthumb 26.6843 -51.3622
lclavicle -2.90226e-014 -7.15625e-015
lhumerus 3.14711 17.3465 71.4749
lradius 74.1439
lwrist 12.411
lhand -14.5266 12.7769
lfingers 7.12502
lthumb 11.6213 42.4347
rfemur -55.0288 -7.50533 24.5739
rtibia 93.3586
rfoot 7.07512 -4.84252
rtoes 0.424711
lfemur -56.5222 11.637 -15.0643
ltibia 107.805
lfoot -1.82096 3.9502
ltoes -14.3652
478
root 12.9174 22.8265 12.3483 -168.115 25.63 -175.629
lowerback 18.5298 -5.39884 5.54631
upperback 2.77274 -5.78064 -1.07128
thorax -8.01665 -2.82284 -2.83657
lowerneck -0.0947757 2.02542 -7.94656
upperneck -16.5807 3.20845 0.495657
head -5.11818 2.34165 1.29536
rclavicle 7.07673e-014 -4.69132e-014
rhumerus 9.15096 -10.6711 -72.8186
rradius 96.4544
rwrist -18.5204
rhand 0.959526 -23.5419
rfingers 7.12502
rthumb 26.5091 -51.7074
lclavicle 7.07673e-014 -4.69132e-014
lhumerus 1.63721 16.5644 72.0139
lradius 67.8223
lwrist 10.4196
lhand -14.9097 12.3164
lfingers 7.12502
lthumb 11.2518 41.9946
rfemur -55.4502 -7.09776 24.3674
rtibia 95.0113
rfoot 6.8874 -6.47165
rtoes -0.114798
lfemur -56.5226 11.8445 -15.3813
ltibia 107.738
lfoot -2.33689 4.97381
ltoes -14.4184
479
root 12.902 22.7868 12.4526 -167.748 25.6271 -175.396
lowerback 18.4465 -5.35037 5.5198
upperback 2.52734 -5.74055 -0.971807
thorax -8.22217 -2.82015 -2.71905
lowerneck -0.349828 2.05018 -8.11245
upperneck -15.8726 3.22296 0.523286
head -4.86088 2.31961 1.33925
rclavicle 3.93594e-014 -1.19271e-014
rhumerus 7.2397 -8.3293 -74.6075
rradius 91.9114
rwrist -20.1159
rhand -0.423202 -24.3313
rfingers 7.12502
rthumb 25.185 -52.6897
lclavicle 3.93594e-014 -1.19271e-014
lhumerus 0.0848427 15.4493 72.6643
lradius 61.3835
lwrist 9.46323
lhand -16.4562 12.071
lfingers 7.12502
lthumb 9.76007 41.8248
rfemur -55.464 -6.60514 24.4736
rtibia 95.882
rfoot 7.20761 -7.93948
rtoes -0.237573
lfemur -56.16 11.9192 -15.3351
ltibia 106.88
lfoot -2.72739 5.53436
ltoes -14.1987
480
root 12.8871 22.7396 12.5428 -167.469 25.579 -175.242
lowerback 18.0557 -5.38674 5.63741
upperback 2.38921 -5.81815 -1.055
thorax -8.18855 -2.87599 -2.87363
lowerneck -0.662453 2.0859 -7.99144
upperneck -15.1878 3.27525 0.573544
head -4.59793 2.30071 1.34255
rclavicle 7.59357e-014 -4.13472e-014
rhumerus 5.43902 -6.42754 -76.5972
rradius 86.5074
rwrist -20.3991
rhand 0.0660132 -24.6331
rfingers 7.12502
rthumb 25.6536 -52.9248
lclavicle 7.59357e-014 -4.13472e-014
lhumerus -1.52713 14.5955 72.9601
lradius 54.6732
lwrist 7.40713
lhand -16.5582 11.4679
lfingers 7.12502
lthumb 9.66164 41.2263
rfemur -55.0011 -6.2067 24.5487
rtibia 95.8927
rfoot 7.80328 -9.11686
rtoes 0.272942
lfemur -55.3033 11.6568 -15.2904
ltibia 105.183
lfoot -2.72326 5.87205
ltoes -13.161
481
root 12.8825 22.6808 12.6234 -167.218 25.5739 -175.002
lowerback 17.5387 -5.33222 5.73067
upperback 2.28668 -5.78096 -1.06061
thorax -8.02397 -2.87145 -2.97276
lowerneck -1.01355 2.01577 -8.31911
upperneck -14.4324 3.22369 1.06124
head -4.31782 2.23076 1.55873
rclavicle 1.82882e-014 -3.33958e-014
rhumerus 3.47488 -4.45856 -78.1767
rradius 80.8958
rwrist -21.1477
rhand 0.17627 -25.3728
rfingers 7.12502
rthumb 25.7592 -53.6492
lclavicle 1.82882e-014 -3.33958e-014
lhumerus -3.2152 14.0943 73.5074
lradius 47.9739
lwrist 4.31089
lhand -15.1239 11.2327
lfingers 7.12502
lthumb 11.0453 40.9221
rfemur -53.9742 -5.7406 24.7044
rtibia 95.0817
rfoot 8.72752 -9.6268
rtoes 0.91144
lfemur -53.949 11.2642 -15.0593
ltibia 102.73
lfoot -2.79423 5.97788
ltoes -13.8004
482
root 12.8833 22.6116 12.6985 -167.028 25.5483 -174.783
lowerback 16.9933 -5.30007 5.69119
upperback 2.20149 -5.8003 -1.07625
thorax -7.81757 -2.88854 -2.99667
lowerneck -1.64898 1.88644 -8.37021
upperneck -13.0839 3.08083 1.27967
head -4.20571 2.11393 1.79626
rclavicle 3.49861e-014 -2.38542e-015
rhumerus 1.51902 -2.19047 -79.5526
rradius 75.075
rwrist -21.5466
rhand 1.27918 -26.5276
rfingers 7.12502
rthumb 26.815 -54.6465
lclavicle 3.49861e-014 -2.38542e-015
lhumerus -5.04416 14.4106 74.0084
lradius 41.4101
lwrist -0.899955
lhand -12.3456 11.4853
lfingers 7.12502
lthumb 13.7239 41.0127
rfemur -52.4905 -5.28538 24.8613
rtibia 93.4148
rfoot 9.93117 -9.73834
rtoes 0.671316
lfemur -52.2837 10.818 -14.7949
ltibia 99.6315
lfoot -2.549 5.63567
ltoes -13.9583
483
root 12.8865 22.5207 12.764 -166.889 25.403 -174.353
lowerback 16.4945 -5.31224 5.87663
upperback 2.15979 -5.82409 -1.02948
thorax -7.60516 -2.9096 -3.07714
lowerneck -2.33267 1.66225 -8.70416
upperneck -12.0884 2.87209 2.04443
head -3.73343 1.95405 2.13231
rclavicle 6.32135e-014 -3.18055e-015
rhumerus -0.453157 0.0719289 -80.8214
rradius 69.2818
rwrist -20.4937
rhand 3.23962 -27.9892
rfingers 7.12502
rthumb 28.6895 -55.806
lclavicle 6.32135e-014 -3.18055e-015
lhumerus -7.21327 15.0414 74.474
lradius 35.5383
lwrist -6.99971
lhand -9.84148 12.133
lfingers 7.12502
lthumb 16.1363 41.4813
rfemur -50.4407 -4.85153 25.1947
rtibia 90.9566
rfoot 11.224 -9.34736
rtoes 0.138707
lfemur -50.2522 10.214 -14.2372
ltibia 96.0194
lfoot -2.19259 5.21113
ltoes -14.1628
